<svg xmlns="http://www.w3.org/2000/svg" viewBox="0 0 390 690" role="img" aria-label="Vietnam province map">
  <metadata>Generated from data/vietnam-provinces.geojson copied from /Users/ducduy/Projects/vietnam-3d-map/data.</metadata>
  
  <path class="province-shape" data-province="Hà Nội" data-source-id="01" d="M149.9 115.9 L152.3 114.3 L152.8 110.7 L154.2 110.0 L156.2 111.1 L158.1 116.2 L163.8 115.9 L163.3 114.3 L165.1 113.7 L164.7 113.0 L166.3 113.1 L166.7 114.0 L168.3 113.1 L167.8 111.5 L170.3 108.4 L170.5 106.8 L173.2 107.0 L173.6 109.0 L174.8 109.1 L174.9 110.0 L176.2 110.5 L176.5 112.7 L175.1 113.5 L175.9 115.4 L175.6 118.2 L176.6 119.7 L179.0 120.1 L179.8 121.3 L179.4 123.0 L177.5 123.8 L177.6 125.0 L175.5 124.5 L175.6 127.0 L174.7 127.8 L176.4 129.2 L175.5 131.5 L176.0 132.7 L177.7 133.2 L177.6 135.4 L178.0 136.4 L179.2 136.3 L178.9 137.4 L177.3 138.6 L176.3 137.3 L174.1 138.9 L171.8 138.0 L172.2 138.8 L170.1 142.3 L168.5 140.8 L167.1 140.9 L166.8 139.9 L165.4 140.1 L166.3 139.2 L165.5 137.3 L166.1 136.5 L164.7 132.4 L164.0 132.4 L164.4 130.7 L162.6 130.3 L162.0 131.6 L160.7 131.7 L162.2 130.1 L160.8 128.5 L162.1 126.7 L159.7 126.9 L157.0 125.7 L154.1 122.3 L152.7 123.0 L150.7 122.4 L150.2 121.1 L151.3 118.4 Z"></path>
  <path class="province-shape" data-province="Bắc Ninh" data-source-id="24" d="M174.2 108.6 L175.2 108.1 L175.4 106.9 L176.6 107.0 L177.4 104.3 L180.2 106.1 L181.3 99.3 L180.4 98.3 L182.3 96.2 L185.6 95.9 L186.6 96.9 L185.9 97.3 L185.9 101.0 L189.0 102.4 L190.7 101.9 L190.6 103.6 L192.4 103.8 L192.2 105.4 L192.9 106.0 L195.8 105.6 L196.0 104.2 L198.7 103.7 L200.3 101.5 L199.7 100.6 L200.5 98.9 L202.3 97.0 L206.4 96.7 L209.3 99.7 L211.1 98.1 L213.4 98.8 L214.3 100.2 L213.4 101.7 L215.3 101.9 L216.2 104.5 L219.4 104.3 L219.9 104.9 L219.3 107.6 L221.2 109.4 L218.7 111.0 L218.9 113.5 L217.2 116.0 L212.7 115.1 L213.0 116.7 L211.4 116.8 L205.1 115.4 L204.0 115.9 L201.1 115.0 L200.6 113.6 L199.0 113.0 L196.3 113.3 L193.1 116.2 L191.8 114.9 L192.2 116.8 L191.1 118.4 L191.7 120.8 L191.0 122.5 L189.9 123.9 L188.0 123.5 L185.9 124.7 L184.7 123.3 L183.7 124.1 L182.7 123.1 L179.1 123.3 L179.8 121.6 L179.4 120.6 L176.6 119.7 L175.5 117.8 L175.9 115.4 L175.1 113.5 L176.5 112.6 L176.2 110.5 Z"></path>
  <path class="province-shape" data-province="Quảng Ninh" data-source-id="22" d="M196.9 118.7 L198.8 117.7 L199.5 113.6 L204.0 115.9 L205.1 115.4 L211.4 116.8 L213.0 116.7 L212.7 115.1 L217.2 116.0 L218.9 113.5 L218.7 111.0 L220.6 110.3 L223.9 106.9 L226.6 107.5 L228.6 106.4 L230.2 107.3 L229.8 102.2 L228.2 99.5 L231.1 98.7 L231.9 97.4 L235.4 97.3 L238.6 94.3 L239.5 94.6 L240.1 96.4 L239.5 97.2 L241.9 97.6 L243.2 96.3 L247.4 96.7 L251.7 94.7 L254.1 95.3 L254.7 94.7 L258.7 99.9 L262.5 99.8 L261.8 100.7 L260.8 100.5 L261.6 101.3 L261.0 102.0 L264.2 102.1 L261.5 102.5 L259.3 104.4 L260.1 102.2 L259.7 103.0 L259.1 101.8 L258.4 103.9 L258.5 102.9 L258.1 103.6 L257.2 102.8 L258.5 101.8 L256.9 101.9 L257.5 101.1 L257.1 100.5 L256.6 101.2 L256.4 100.2 L255.3 101.8 L255.0 100.1 L254.3 101.9 L253.9 100.3 L252.6 101.6 L251.6 100.6 L251.9 101.3 L250.6 101.0 L252.4 102.3 L250.5 104.5 L250.5 106.7 L250.4 105.8 L248.6 105.1 L249.0 106.3 L247.8 105.3 L247.8 106.4 L247.2 105.2 L246.7 105.7 L247.3 106.8 L245.8 106.7 L246.4 108.3 L245.4 109.3 L244.7 108.9 L245.2 109.6 L244.6 109.4 L244.8 110.2 L244.2 109.6 L244.4 110.7 L243.2 110.6 L242.7 109.4 L242.8 110.8 L241.7 108.6 L242.0 109.8 L241.3 109.0 L241.5 109.8 L240.9 109.4 L242.1 110.7 L240.9 110.5 L240.7 109.5 L240.7 110.5 L239.4 109.8 L239.7 110.8 L238.9 110.0 L238.2 111.0 L237.0 110.7 L238.0 113.1 L235.5 115.4 L236.6 115.4 L236.8 117.3 L234.7 120.0 L237.6 116.8 L237.0 115.9 L239.1 115.4 L238.3 114.3 L238.4 111.3 L241.8 114.7 L244.6 113.9 L235.8 121.6 L234.7 120.0 L234.3 123.3 L229.9 123.4 L228.0 124.9 L227.9 126.1 L226.0 126.0 L226.3 126.5 L223.5 125.6 L218.2 125.6 L217.9 126.7 L216.8 126.8 L217.7 127.4 L214.6 128.1 L213.8 129.2 L214.5 130.7 L213.1 131.5 L209.9 129.4 L210.0 123.8 L204.4 122.8 L202.5 120.9 L200.1 121.3 L200.1 120.7 L197.6 120.5 Z M221.5 124.1 L222.5 125.1 L223.4 123.7 Z M233.4 129.9 L234.1 131.0 L235.4 130.9 L235.5 132.3 L233.8 131.9 Z M233.2 128.6 L233.3 127.9 L235.9 128.7 L234.3 129.6 L233.8 128.3 Z M232.4 126.1 L235.7 125.0 L234.2 126.6 Z M235.9 128.1 L239.7 125.2 L239.3 124.0 L241.7 121.6 L241.7 123.0 L242.3 121.4 L242.3 124.0 L241.7 124.0 L240.8 126.8 Z M238.9 131.3 L239.8 128.9 L239.2 128.3 L240.7 127.6 L239.2 127.9 L241.0 127.1 L242.6 124.7 L242.7 126.2 Z M242.7 124.4 L243.8 120.2 L245.5 117.9 Z M241.2 119.9 L243.6 117.9 L243.1 119.7 L241.9 119.5 L242.6 120.2 Z M249.6 123.1 L250.3 122.3 L251.9 123.8 L251.0 123.4 L251.6 124.6 L249.9 125.8 L250.9 124.6 Z M252.6 123.6 L253.8 121.5 L254.9 121.5 L253.2 124.1 Z M253.5 107.4 L260.8 106.0 L258.2 107.8 L254.3 108.5 L254.4 107.7 L256.1 107.2 Z"></path>
  <path class="province-shape" data-province="Hải Phòng" data-source-id="31" d="M184.1 130.7 L185.5 125.5 L184.5 125.1 L184.4 123.4 L185.9 123.9 L185.9 124.7 L188.0 123.5 L190.2 123.7 L191.7 120.8 L191.1 118.7 L192.2 116.9 L191.7 115.0 L193.1 116.2 L196.3 113.3 L199.0 113.0 L199.5 114.5 L198.8 117.6 L197.0 118.2 L197.3 120.3 L200.1 120.7 L200.1 121.3 L202.5 120.9 L204.5 122.8 L209.7 123.6 L210.4 125.1 L209.7 128.5 L210.3 130.0 L213.1 131.5 L214.3 130.5 L216.1 132.2 L214.0 132.7 L213.0 131.6 L212.2 132.7 L210.7 132.4 L209.9 133.1 L211.7 135.5 L212.0 137.7 L211.0 136.5 L209.9 137.0 L210.3 135.8 L209.0 137.3 L207.4 137.1 L208.0 138.4 L206.6 140.2 L203.5 139.1 L201.3 139.6 L200.6 140.7 L199.1 140.1 L198.3 140.9 L197.0 138.2 L195.4 137.0 L195.6 135.2 L191.3 136.9 L190.6 136.0 L190.8 136.7 L189.8 136.3 L189.2 136.7 L190.0 137.1 L189.2 137.0 L187.8 134.3 L185.1 132.7 Z M216.2 131.3 L217.6 130.6 L217.9 128.7 L218.1 130.0 L219.6 129.4 L220.4 130.4 L220.1 129.4 L221.3 129.4 L221.7 131.5 L222.3 130.6 L224.2 132.6 L223.0 131.8 L223.9 133.1 L223.1 133.0 L221.9 131.3 L222.8 132.7 L222.1 133.0 L222.9 133.0 L221.7 133.7 L221.1 132.7 L222.7 134.5 L221.9 134.4 L221.8 135.9 L220.5 134.4 L219.6 134.3 L219.8 135.2 Z"></path>
  <path class="province-shape" data-province="Hưng Yên" data-source-id="33" d="M174.7 127.8 L175.6 127.0 L175.6 124.5 L177.6 125.0 L178.1 123.4 L183.5 123.4 L185.5 125.5 L184.4 131.8 L187.8 134.3 L189.2 137.0 L190.0 137.1 L189.2 136.7 L189.8 136.3 L190.8 136.7 L190.6 136.0 L191.3 136.9 L195.6 135.2 L195.4 137.0 L197.0 138.2 L198.3 140.9 L199.1 140.1 L200.6 140.7 L201.3 139.6 L203.5 139.1 L205.5 140.0 L205.9 140.6 L202.7 142.7 L203.7 148.5 L203.7 147.1 L204.3 147.7 L202.8 149.9 L203.8 150.0 L204.2 151.3 L203.3 156.0 L200.6 153.2 L197.0 154.1 L192.9 150.5 L189.6 152.6 L190.5 149.5 L187.7 148.7 L188.2 146.5 L186.5 145.8 L186.0 143.0 L184.5 142.0 L184.1 140.1 L181.6 140.5 L180.5 139.4 L180.1 136.7 L177.9 136.4 L177.7 133.2 L176.0 132.6 L175.4 131.3 L176.4 129.3 Z"></path>
  <path class="province-shape" data-province="Ninh Bình" data-source-id="37" d="M160.4 151.2 L162.7 151.1 L166.2 153.6 L168.0 152.2 L166.2 149.0 L167.6 149.2 L169.1 150.9 L169.0 147.7 L170.1 147.9 L170.6 147.2 L171.8 148.7 L173.2 148.4 L173.0 146.1 L171.1 145.2 L169.6 142.3 L170.7 142.1 L172.3 138.7 L171.7 138.2 L174.1 138.9 L174.8 137.8 L176.7 137.2 L177.3 138.6 L179.4 136.3 L181.2 140.3 L184.0 140.0 L184.5 142.0 L185.9 142.7 L186.5 145.8 L188.2 146.7 L187.8 148.8 L190.5 149.5 L189.6 152.6 L192.9 150.5 L197.3 154.2 L200.6 153.2 L202.5 155.2 L202.9 157.1 L200.1 158.5 L196.9 157.6 L194.8 158.3 L182.7 171.9 L183.5 169.7 L181.8 170.6 L180.1 168.6 L182.0 164.0 L177.4 164.0 L174.7 161.7 L168.4 158.8 L162.7 153.3 L161.2 153.1 Z"></path>
  <path class="province-shape" data-province="Cao Bằng" data-source-id="04" d="M149.1 41.4 L149.2 40.7 L150.6 40.9 L150.8 39.3 L153.0 38.1 L153.5 35.8 L158.1 35.0 L159.8 30.6 L161.2 30.1 L161.8 32.4 L167.2 32.2 L168.1 33.8 L170.0 34.4 L171.0 35.8 L172.0 35.6 L174.0 39.1 L175.9 37.8 L178.9 38.0 L179.1 35.7 L185.0 35.6 L187.2 36.0 L188.6 37.4 L189.8 39.4 L189.3 40.3 L190.4 41.2 L192.3 41.0 L193.2 41.8 L194.3 40.5 L196.0 40.9 L197.3 39.6 L199.3 39.6 L200.4 37.7 L202.1 39.0 L203.6 38.5 L205.6 41.4 L206.3 40.2 L207.8 40.3 L210.2 43.8 L212.4 43.4 L213.2 44.1 L210.2 46.9 L210.8 48.3 L209.7 48.8 L209.9 49.8 L208.5 51.4 L208.5 53.6 L205.7 54.2 L204.7 52.9 L203.8 53.1 L202.9 58.6 L201.7 59.3 L202.0 60.9 L199.0 61.9 L198.9 63.3 L198.1 63.7 L195.2 63.1 L193.8 63.8 L192.5 61.4 L188.8 59.2 L187.2 60.5 L186.5 62.5 L183.3 61.9 L182.9 59.9 L183.9 58.8 L183.9 57.1 L182.0 55.1 L182.3 54.3 L181.0 54.1 L177.2 56.5 L176.3 56.3 L175.4 57.7 L171.0 56.5 L167.9 51.7 L169.9 49.0 L168.4 46.9 L167.5 47.7 L165.4 47.6 L164.7 48.8 L163.5 48.6 L162.8 50.1 L159.2 51.5 L157.4 46.2 Z"></path>
  <path class="province-shape" data-province="Tuyên Quang" data-source-id="08" d="M111.1 49.1 L111.4 48.2 L112.6 49.2 L113.8 48.6 L121.0 41.9 L121.9 42.2 L121.9 43.5 L122.8 43.3 L122.9 42.2 L124.9 43.5 L127.3 43.2 L127.0 42.1 L128.3 41.7 L129.2 39.6 L132.7 37.9 L132.6 36.4 L131.3 35.5 L130.1 30.3 L133.2 29.9 L134.0 27.5 L136.1 28.7 L136.7 26.5 L138.1 26.4 L141.5 23.6 L142.6 24.5 L143.8 24.1 L145.2 22.6 L147.8 23.8 L148.4 20.7 L149.8 20.3 L151.4 18.0 L153.5 21.3 L155.2 22.8 L156.3 22.1 L158.6 26.4 L160.4 26.8 L161.6 28.3 L161.3 30.1 L159.8 30.6 L158.1 35.0 L153.5 35.8 L153.0 38.1 L150.8 39.3 L150.6 40.9 L149.2 40.7 L149.1 41.4 L157.4 46.2 L157.6 47.9 L158.8 48.9 L158.5 50.7 L159.9 51.6 L162.7 56.5 L162.6 58.0 L160.6 60.3 L161.3 61.6 L159.4 61.9 L159.2 64.2 L157.8 65.9 L158.3 66.6 L156.1 68.1 L155.8 70.1 L157.4 72.5 L158.4 72.6 L157.1 74.5 L157.1 76.3 L158.8 79.9 L160.9 81.4 L160.6 84.1 L159.4 84.9 L159.8 86.8 L158.4 87.1 L158.4 89.4 L159.7 89.9 L157.7 92.8 L158.5 96.3 L160.4 98.2 L159.5 99.9 L155.5 101.6 L153.4 100.4 L152.1 101.3 L150.5 101.1 L147.4 95.9 L147.9 94.5 L141.4 91.7 L140.6 90.6 L142.3 87.8 L138.8 84.0 L139.0 82.4 L137.7 82.3 L138.2 77.7 L136.7 78.3 L135.6 77.0 L133.4 76.4 L132.1 71.4 L128.6 72.1 L127.0 70.8 L126.7 68.1 L122.3 66.7 L121.4 68.5 L120.0 68.9 L119.7 67.3 L121.1 66.2 L120.5 65.0 L121.1 64.1 L116.5 60.9 L115.8 59.3 L116.7 58.0 L114.4 56.2 L114.8 54.3 L116.5 54.2 L116.4 53.2 L115.1 52.6 L115.2 51.2 L114.1 51.8 L113.9 49.5 L112.2 49.9 Z"></path>
  <path class="province-shape" data-province="Lào Cai" data-source-id="15" d="M78.4 53.4 L80.3 50.3 L79.7 48.4 L82.9 44.4 L92.5 54.6 L96.6 57.2 L98.0 56.5 L98.6 49.0 L100.2 46.2 L102.2 43.8 L108.4 42.5 L107.9 45.2 L108.5 46.8 L111.3 47.7 L111.1 49.1 L111.9 49.8 L113.9 49.5 L114.1 51.8 L115.2 51.2 L115.1 52.6 L116.4 53.2 L116.5 54.2 L114.8 54.3 L114.4 56.2 L116.7 58.0 L115.8 59.3 L116.5 60.9 L121.1 64.1 L120.5 65.0 L121.1 66.2 L119.7 67.3 L120.0 68.9 L121.4 68.5 L122.3 66.7 L126.9 68.2 L127.0 70.8 L128.6 72.2 L132.1 71.4 L133.1 76.0 L136.7 78.3 L138.2 77.7 L137.7 82.3 L139.0 82.4 L138.8 84.0 L142.3 87.6 L140.6 90.6 L142.3 93.6 L139.5 92.7 L137.4 93.9 L137.1 95.1 L136.4 94.5 L134.5 95.7 L134.4 96.8 L133.7 96.6 L134.1 98.6 L132.9 99.4 L134.7 103.9 L133.5 106.3 L134.1 108.4 L132.5 107.4 L131.8 108.6 L129.2 109.1 L127.4 105.6 L125.6 105.8 L125.1 107.0 L121.6 104.9 L119.0 105.3 L116.9 107.9 L115.0 107.9 L114.2 106.4 L111.6 105.0 L111.0 105.5 L109.0 102.7 L109.2 97.1 L111.3 94.8 L106.5 93.9 L104.5 95.5 L103.4 94.7 L101.1 95.2 L98.6 93.9 L94.9 94.0 L94.1 91.3 L95.6 90.9 L96.1 89.6 L93.0 85.5 L92.8 83.7 L94.2 82.5 L95.1 83.2 L96.9 81.0 L95.7 79.6 L95.0 73.4 L92.1 71.7 L90.3 67.6 L87.8 65.8 L88.6 64.6 L87.2 61.5 L82.2 62.1 L81.3 61.5 L79.3 58.8 L81.0 56.3 L80.1 54.1 Z"></path>
  <path class="province-shape" data-province="Thái Nguyên" data-source-id="19" d="M155.8 70.1 L156.1 68.1 L158.3 66.6 L157.8 65.9 L159.2 64.2 L159.4 61.9 L161.2 61.8 L161.5 61.1 L160.8 61.4 L160.6 60.3 L162.6 58.0 L162.4 55.6 L160.7 54.2 L159.9 51.6 L160.6 50.6 L162.8 50.1 L163.5 48.6 L164.7 48.8 L165.4 47.6 L167.5 47.7 L168.4 46.9 L169.2 47.5 L169.9 49.0 L167.9 51.7 L168.9 53.7 L170.0 54.1 L169.7 55.3 L171.3 56.6 L175.4 57.7 L176.3 56.3 L177.2 56.5 L181.0 54.1 L182.4 54.3 L182.0 55.1 L183.9 57.1 L183.9 58.8 L182.9 59.9 L183.3 61.8 L185.1 61.9 L187.5 63.3 L188.0 64.2 L187.2 65.9 L189.1 68.3 L188.0 70.4 L188.5 71.9 L185.4 75.9 L183.0 76.6 L183.7 80.5 L183.0 82.3 L184.4 83.2 L182.9 87.5 L183.6 89.1 L184.6 89.0 L185.1 90.0 L188.7 91.9 L186.6 96.9 L185.6 95.9 L183.0 96.0 L180.4 98.3 L181.3 99.3 L180.6 101.9 L181.1 103.3 L180.1 104.3 L180.1 106.2 L177.4 104.3 L177.3 105.8 L176.6 105.9 L176.5 107.1 L175.3 107.0 L175.2 108.1 L174.2 108.6 L174.6 109.1 L173.2 108.5 L173.2 106.9 L170.9 106.5 L169.9 107.6 L169.1 105.4 L164.8 103.4 L162.9 100.2 L158.5 96.3 L157.7 92.8 L159.7 89.7 L158.4 89.4 L158.4 87.1 L159.8 86.8 L159.4 84.9 L160.6 84.1 L160.9 81.4 L158.8 79.9 L157.1 76.3 L157.1 74.5 L158.4 72.6 L157.4 72.5 Z"></path>
  <path class="province-shape" data-province="Lạng Sơn" data-source-id="20" d="M182.9 87.5 L184.4 83.2 L183.0 82.3 L183.7 80.5 L183.1 76.4 L185.4 75.9 L188.6 71.7 L188.0 70.4 L189.0 67.8 L187.2 65.9 L188.0 64.1 L186.5 62.5 L187.8 59.7 L190.3 59.8 L192.7 61.5 L193.8 63.8 L195.2 63.1 L198.1 63.7 L198.9 63.3 L199.0 61.9 L201.9 60.9 L202.9 62.4 L201.8 64.2 L205.9 64.8 L206.2 67.0 L207.2 67.3 L207.6 69.9 L206.3 71.3 L207.8 72.5 L207.1 73.5 L208.1 75.3 L207.9 78.4 L206.8 79.5 L207.2 81.1 L210.2 79.0 L212.1 80.7 L216.4 80.6 L216.9 82.6 L218.2 83.1 L219.4 81.7 L220.8 82.0 L222.4 84.2 L220.5 85.5 L220.1 87.1 L224.3 88.6 L228.8 92.4 L229.9 92.5 L232.2 90.9 L234.5 94.3 L234.5 97.2 L231.9 97.4 L231.1 98.7 L228.1 99.6 L229.3 100.7 L229.6 104.4 L230.6 105.9 L229.6 107.4 L228.6 106.4 L226.6 107.5 L224.0 106.9 L221.0 109.1 L219.3 107.6 L219.9 104.9 L219.4 104.3 L216.2 104.5 L215.3 101.9 L213.4 101.7 L214.3 100.2 L213.4 98.8 L211.1 98.1 L209.3 99.7 L206.4 96.7 L201.7 97.3 L198.7 103.7 L196.0 104.2 L195.8 105.6 L192.9 106.0 L192.2 105.4 L192.4 103.8 L190.6 103.6 L190.7 101.9 L189.0 102.4 L185.9 100.9 L185.9 97.3 L188.7 91.9 L185.1 90.0 L184.6 89.0 L183.6 89.1 Z"></path>
  <path class="province-shape" data-province="Phú Thọ" data-source-id="25" d="M130.7 108.8 L131.8 108.5 L132.3 107.4 L133.5 108.4 L134.2 108.0 L133.5 106.3 L134.7 103.8 L132.9 99.4 L134.1 98.6 L133.7 96.6 L134.4 96.8 L134.5 95.7 L136.4 94.5 L137.1 95.1 L137.4 93.9 L139.5 92.7 L142.1 93.7 L142.0 91.9 L147.9 94.5 L147.4 95.9 L150.5 101.1 L152.1 101.3 L153.4 100.4 L155.5 101.6 L159.5 100.0 L160.8 98.3 L164.8 103.4 L167.8 104.4 L168.0 105.5 L168.8 105.2 L170.3 107.8 L167.8 111.4 L168.3 113.1 L166.7 114.0 L166.3 113.1 L164.7 113.0 L165.1 113.7 L163.3 114.3 L163.8 115.9 L158.3 116.3 L157.3 115.6 L156.0 110.8 L154.2 110.0 L152.8 110.7 L152.3 114.3 L149.9 115.9 L151.3 118.6 L150.2 121.2 L151.6 123.0 L154.1 122.3 L156.4 125.3 L159.2 126.8 L161.9 126.5 L160.8 128.5 L162.2 130.1 L160.7 131.8 L162.0 131.6 L162.6 130.3 L164.2 130.4 L164.0 132.4 L164.7 132.4 L166.1 136.5 L165.5 137.3 L166.3 139.2 L165.4 140.1 L166.8 139.8 L167.1 140.9 L168.6 140.9 L171.1 145.2 L173.0 146.1 L173.2 148.4 L171.8 148.7 L170.6 147.2 L170.1 147.9 L169.0 147.7 L169.1 150.9 L167.6 149.2 L166.2 149.0 L168.0 152.2 L165.8 153.6 L162.0 150.8 L159.0 151.3 L152.3 149.9 L148.8 148.0 L149.1 147.1 L147.7 145.0 L145.2 144.5 L142.6 142.0 L139.2 142.6 L136.6 141.7 L136.6 139.6 L134.2 137.8 L132.0 138.6 L131.6 134.1 L132.9 133.4 L138.8 135.5 L137.9 134.1 L139.6 133.2 L139.6 132.3 L138.2 131.5 L138.5 130.1 L137.3 127.4 L132.8 122.0 L132.3 120.0 L134.7 118.2 L132.2 116.7 L132.8 114.2 L131.9 113.5 L131.9 109.8 Z"></path>
  <path class="province-shape" data-province="Điện Biên" data-source-id="11" d="M21.8 61.9 L22.4 60.6 L23.5 60.4 L26.7 61.3 L26.1 59.2 L29.1 55.4 L30.1 57.9 L32.0 59.3 L31.8 61.6 L34.2 63.7 L37.3 68.4 L38.3 68.9 L39.5 68.1 L41.2 69.2 L42.0 71.8 L43.5 72.2 L44.4 70.3 L42.9 68.4 L43.6 68.0 L45.7 69.1 L46.7 70.4 L46.1 73.2 L47.6 75.7 L51.1 76.9 L51.3 76.1 L53.7 75.5 L53.6 74.8 L53.8 76.5 L56.1 78.4 L56.7 77.3 L60.6 77.0 L60.9 75.1 L62.6 76.6 L63.7 76.0 L68.3 77.8 L68.3 74.8 L70.2 72.8 L72.6 72.7 L73.9 76.3 L75.9 78.2 L75.4 79.5 L77.5 81.5 L78.0 83.3 L76.3 83.6 L78.0 85.6 L79.3 88.6 L78.8 89.4 L81.1 93.5 L78.8 95.1 L79.5 95.9 L77.8 100.0 L75.4 100.7 L74.9 104.3 L73.5 104.7 L73.4 103.7 L70.2 105.2 L71.5 107.1 L72.5 107.3 L71.8 108.9 L74.3 109.9 L74.6 115.1 L74.4 116.1 L72.9 116.9 L73.9 120.5 L72.1 120.7 L68.4 119.0 L67.9 121.1 L68.9 124.9 L67.9 126.0 L68.1 127.8 L66.6 128.4 L63.5 127.0 L61.4 127.9 L58.1 120.8 L55.4 120.3 L54.2 116.5 L52.7 116.1 L53.1 113.3 L51.2 112.1 L49.0 112.3 L50.7 110.3 L52.5 110.0 L52.5 106.5 L54.4 103.4 L51.4 104.6 L52.1 102.5 L52.9 102.4 L56.4 97.7 L55.7 90.7 L51.7 92.6 L50.9 91.8 L50.7 86.5 L49.9 86.3 L49.0 87.2 L49.7 91.2 L46.1 94.5 L43.4 94.7 L42.3 91.3 L42.9 88.7 L42.3 85.7 L40.9 84.9 L40.9 83.1 L36.6 80.7 L35.9 79.2 L37.1 78.2 L33.9 76.3 L33.7 74.4 L31.6 73.8 L30.9 72.4 L29.6 72.2 L29.0 70.6 L27.4 70.5 L27.1 69.1 L25.8 69.0 L25.5 67.1 L23.2 66.1 L23.9 64.7 L22.8 64.1 Z"></path>
  <path class="province-shape" data-province="Lai Châu" data-source-id="12" d="M29.0 55.1 L30.4 54.6 L30.1 53.5 L33.0 51.5 L31.6 49.4 L33.7 48.6 L34.7 45.8 L36.2 45.1 L38.3 46.6 L39.1 48.5 L40.7 47.2 L42.7 49.1 L44.0 48.5 L48.0 51.2 L48.1 51.9 L51.1 52.7 L53.8 58.2 L56.2 58.4 L58.0 60.1 L59.6 59.8 L60.1 57.0 L64.2 55.0 L63.2 53.4 L64.3 51.1 L66.0 51.0 L68.3 49.4 L69.7 43.9 L71.9 44.3 L74.7 46.3 L74.3 48.6 L76.6 52.2 L80.1 54.1 L81.0 56.4 L79.4 59.1 L82.2 62.1 L87.2 61.6 L88.6 64.6 L87.8 65.8 L90.3 67.6 L92.1 71.7 L94.9 73.3 L95.7 79.6 L96.9 81.0 L95.1 83.2 L94.2 82.5 L92.8 83.7 L93.0 85.5 L95.5 88.2 L96.0 90.3 L94.1 91.3 L94.1 92.9 L92.7 92.3 L92.6 93.3 L91.5 93.1 L90.7 90.8 L89.6 91.1 L88.5 89.2 L87.5 89.2 L87.7 87.9 L85.1 87.2 L86.2 84.8 L83.3 79.8 L78.9 78.2 L77.5 79.1 L77.0 80.8 L76.0 80.3 L75.3 79.1 L75.9 78.2 L73.9 76.3 L72.5 72.7 L70.2 72.8 L68.3 74.8 L68.3 77.8 L63.7 76.0 L62.6 76.6 L60.9 75.1 L60.6 77.0 L56.7 77.3 L56.1 78.4 L53.8 76.5 L53.6 74.8 L53.7 75.5 L51.3 76.1 L51.1 76.9 L49.3 76.6 L46.3 73.8 L46.7 70.4 L45.7 69.1 L43.6 68.0 L42.9 68.4 L44.4 70.3 L43.5 72.2 L42.0 71.8 L41.2 69.2 L39.5 68.1 L38.1 68.9 L36.9 68.1 L34.2 63.7 L31.8 61.6 L32.0 59.3 L30.1 57.9 Z"></path>
  <path class="province-shape" data-province="Sơn La" data-source-id="14" d="M65.4 128.2 L67.3 128.3 L68.5 127.3 L67.9 126.0 L68.9 125.6 L68.9 124.5 L67.9 121.1 L68.5 118.9 L72.1 120.7 L74.0 120.4 L72.9 116.9 L74.4 116.0 L74.7 111.0 L73.7 109.4 L71.8 108.9 L72.5 107.3 L71.5 107.1 L70.2 105.2 L73.4 103.7 L73.5 104.7 L74.9 104.3 L75.4 100.7 L77.8 100.0 L79.5 95.9 L78.8 95.1 L80.2 93.4 L81.1 93.5 L78.8 89.4 L79.3 88.6 L78.0 85.6 L76.8 85.0 L76.3 83.6 L78.0 83.3 L77.0 80.7 L77.5 79.1 L78.9 78.2 L83.3 79.8 L86.2 84.8 L85.1 87.2 L87.7 87.9 L87.5 89.2 L88.5 89.2 L89.6 91.1 L90.7 90.8 L91.5 93.1 L92.6 93.3 L92.7 92.3 L94.9 93.1 L94.9 94.0 L98.6 93.9 L101.3 95.3 L103.4 94.7 L104.6 95.5 L106.5 93.9 L111.3 94.8 L109.2 97.1 L109.0 102.7 L111.0 105.5 L111.6 105.0 L114.2 106.4 L114.9 107.8 L116.9 107.9 L119.1 105.2 L121.6 104.9 L125.1 107.0 L125.6 105.8 L127.4 105.6 L128.8 108.9 L130.7 108.8 L131.9 109.8 L131.9 113.5 L132.8 114.2 L132.2 116.7 L134.7 118.2 L132.3 120.0 L132.5 121.1 L137.3 127.4 L138.5 130.1 L138.1 131.4 L139.5 132.1 L139.6 133.2 L137.9 134.1 L138.8 135.5 L132.9 133.4 L131.6 134.1 L132.0 138.6 L130.0 140.0 L130.1 141.5 L127.7 142.0 L126.9 140.7 L125.3 141.0 L123.4 137.7 L121.6 137.5 L120.6 135.7 L118.7 136.4 L117.7 135.8 L117.2 133.5 L110.9 129.6 L111.0 128.5 L109.3 126.7 L108.0 127.8 L107.3 126.3 L105.2 125.2 L102.8 125.6 L101.7 124.3 L99.6 125.5 L98.7 127.6 L93.3 127.4 L91.4 129.4 L89.7 129.2 L88.3 131.9 L89.0 134.3 L86.6 134.9 L87.1 137.4 L85.1 138.1 L81.2 134.4 L77.4 134.1 L75.6 130.9 L74.5 132.4 L72.3 132.7 L68.5 130.4 L67.5 131.1 L66.4 130.6 L66.3 128.9 Z"></path>
  <path class="province-shape" data-province="Thanh Hóa" data-source-id="38" d="M112.7 146.7 L113.3 145.7 L118.8 143.1 L119.6 140.9 L122.0 140.6 L123.5 138.5 L125.3 141.0 L126.6 140.6 L127.7 142.0 L129.2 141.9 L130.2 141.4 L130.5 139.4 L134.2 137.8 L136.6 139.6 L136.6 141.7 L140.1 142.7 L142.6 142.0 L145.2 144.5 L147.7 145.0 L149.1 147.1 L148.8 148.0 L152.3 149.9 L160.3 150.9 L161.2 153.1 L162.7 153.3 L168.4 158.8 L174.7 161.7 L177.4 164.0 L182.0 164.0 L180.0 168.6 L177.1 170.4 L176.9 171.8 L177.6 171.7 L176.4 173.8 L176.2 176.5 L174.8 179.0 L173.5 179.1 L172.3 181.8 L171.3 185.4 L171.4 191.6 L170.2 193.1 L170.9 195.5 L171.9 195.4 L172.0 197.1 L171.3 196.3 L171.1 197.7 L170.9 197.1 L169.5 197.5 L168.5 196.2 L166.3 197.2 L163.9 193.7 L162.3 194.2 L159.6 190.1 L156.4 191.1 L154.2 190.5 L152.7 186.9 L150.2 189.6 L149.3 188.2 L149.7 184.2 L148.9 182.5 L145.0 180.6 L144.9 178.9 L143.7 178.0 L143.6 174.4 L144.3 173.2 L145.9 172.9 L145.0 170.4 L142.0 169.5 L140.2 169.9 L136.6 167.2 L134.8 167.0 L138.0 162.8 L135.6 161.4 L135.3 160.0 L132.5 160.7 L129.1 158.3 L122.5 156.3 L122.6 151.2 L126.8 149.2 L124.6 147.3 L124.7 146.5 L123.0 146.8 L121.9 148.8 L119.0 148.9 L118.8 149.9 L116.6 150.9 L114.4 150.3 L114.4 148.4 L112.9 147.7 Z"></path>
  <path class="province-shape" data-province="Nghệ An" data-source-id="40" d="M92.4 196.7 L95.6 194.7 L96.5 193.0 L99.5 191.7 L100.4 192.2 L100.1 190.6 L102.5 188.4 L101.7 187.5 L101.9 185.6 L100.0 183.7 L100.4 180.7 L102.9 181.6 L104.2 180.0 L107.1 179.6 L109.9 180.0 L110.5 181.3 L114.4 179.6 L114.9 181.1 L117.5 181.9 L119.0 183.7 L122.5 182.8 L123.7 183.3 L124.5 179.8 L127.0 177.5 L128.3 177.8 L128.6 176.6 L131.6 175.7 L132.1 169.9 L135.0 167.0 L136.6 167.2 L140.2 169.9 L142.0 169.5 L145.1 170.5 L145.9 172.9 L144.3 173.2 L143.6 174.4 L143.7 178.0 L144.9 178.9 L145.0 180.6 L148.9 182.5 L149.7 184.2 L149.3 188.2 L150.2 189.6 L152.7 186.9 L154.2 190.5 L156.4 191.1 L159.6 190.1 L162.3 194.2 L163.8 193.7 L165.5 195.4 L165.3 196.6 L167.3 197.1 L168.5 196.2 L169.5 197.5 L170.9 197.2 L171.1 198.3 L170.2 198.3 L169.7 200.1 L168.3 200.7 L168.4 205.6 L164.8 206.6 L163.4 210.9 L164.2 214.6 L167.6 216.6 L167.7 218.3 L169.2 220.1 L168.5 221.2 L169.6 224.0 L167.4 224.5 L165.9 228.3 L162.7 228.4 L160.5 229.4 L158.7 226.9 L153.6 228.3 L149.8 226.3 L147.6 227.9 L146.0 227.4 L146.3 225.4 L143.9 223.9 L143.7 222.4 L140.4 222.8 L140.7 222.0 L139.1 221.7 L139.1 221.0 L135.9 221.4 L134.7 219.2 L132.4 219.9 L127.6 218.7 L126.6 217.0 L125.1 217.1 L123.1 215.0 L121.1 214.4 L119.1 210.8 L117.2 209.9 L115.8 210.8 L113.8 207.7 L110.1 206.3 L109.3 205.1 L106.2 205.0 L106.7 203.4 L104.9 201.6 L101.7 201.0 L100.4 199.5 L97.6 200.3 L94.1 197.1 Z"></path>
  <path class="province-shape" data-province="Hà Tĩnh" data-source-id="42" d="M142.5 233.9 L143.0 230.0 L144.8 226.8 L147.6 227.9 L150.3 226.4 L153.6 228.3 L158.7 226.9 L160.5 229.4 L162.7 228.4 L165.9 228.3 L167.4 224.5 L169.6 224.0 L168.5 221.2 L169.7 220.2 L172.1 227.8 L176.0 234.0 L176.7 232.9 L181.4 239.8 L183.7 241.8 L185.6 241.6 L189.3 243.9 L193.7 248.6 L195.6 248.9 L195.9 247.9 L196.8 247.9 L196.6 250.4 L199.8 254.8 L197.4 255.3 L196.8 254.3 L192.9 253.5 L190.4 256.7 L188.8 256.1 L184.4 256.5 L180.9 255.4 L181.9 253.4 L181.0 252.0 L179.9 252.1 L178.4 250.4 L177.0 250.6 L176.2 249.3 L172.0 250.4 L171.4 250.9 L172.1 251.8 L170.0 252.4 L168.1 251.6 L167.0 253.5 L162.7 253.0 L161.5 249.5 L160.3 249.6 L160.1 248.2 L158.9 247.8 L158.3 244.4 L156.3 244.4 L155.0 246.5 L153.2 246.2 L151.3 244.5 L151.7 241.8 L150.9 241.7 L150.5 243.0 L150.4 242.1 L148.7 242.0 L148.2 240.4 L145.8 239.2 L145.8 236.5 L144.4 236.4 Z"></path>
  <path class="province-shape" data-province="Quảng Trị" data-source-id="44" d="M163.0 257.6 L164.5 253.5 L167.0 253.5 L168.4 251.5 L170.0 252.4 L172.1 251.8 L171.4 250.9 L174.8 249.3 L176.3 249.3 L177.0 250.6 L178.4 250.4 L179.9 252.1 L181.0 252.0 L181.9 253.4 L180.9 255.4 L184.4 256.5 L188.8 256.1 L190.4 256.7 L192.9 253.5 L196.8 254.3 L197.4 255.3 L199.8 254.8 L200.4 255.7 L198.7 256.5 L197.3 258.9 L197.4 261.5 L199.0 265.8 L204.6 275.2 L212.1 283.1 L224.6 292.2 L224.1 295.3 L225.7 297.6 L235.7 306.8 L232.8 310.3 L233.2 311.1 L232.3 311.2 L233.4 313.0 L233.0 313.6 L230.9 314.4 L229.8 313.4 L226.7 313.8 L222.3 315.2 L222.2 316.4 L225.1 318.2 L226.0 321.9 L224.4 322.0 L222.3 320.9 L221.2 323.2 L223.1 324.8 L222.7 325.5 L218.4 325.5 L218.3 323.2 L216.5 322.5 L215.4 321.0 L215.7 320.3 L214.6 320.2 L215.3 316.7 L214.2 315.4 L212.9 315.1 L211.7 318.7 L210.4 318.5 L210.5 320.1 L209.2 321.0 L209.0 319.8 L208.7 320.4 L207.0 319.7 L205.4 316.2 L206.2 313.6 L202.9 312.9 L203.1 311.9 L202.0 311.1 L201.5 301.5 L200.1 299.7 L201.3 299.0 L201.5 295.5 L200.0 297.1 L196.5 295.6 L195.4 293.7 L196.0 292.5 L191.4 287.0 L192.7 285.9 L191.6 285.7 L191.4 283.3 L190.2 283.3 L190.4 284.5 L189.2 285.5 L185.0 282.6 L173.1 268.8 L172.3 269.0 L172.1 267.9 L171.6 268.4 L170.1 267.0 L168.9 267.3 L168.0 264.1 L165.8 261.9 L166.1 260.2 Z"></path>
  <path class="province-shape" data-province="Huế" data-source-id="46" d="M221.2 323.2 L222.3 320.9 L224.4 322.0 L226.0 321.9 L225.1 318.2 L222.2 316.4 L222.3 315.2 L226.7 313.8 L229.8 313.4 L230.9 314.4 L233.0 313.6 L233.4 313.0 L232.3 311.2 L233.2 311.1 L232.8 310.3 L235.7 306.9 L259.5 324.8 L260.9 325.1 L261.3 323.8 L261.9 324.2 L264.3 328.8 L268.5 329.5 L263.0 330.8 L260.1 329.3 L258.8 330.4 L256.7 329.3 L255.2 330.6 L255.5 331.6 L253.0 336.1 L251.3 335.6 L248.2 338.6 L245.1 337.0 L245.1 335.7 L242.7 336.3 L242.0 337.9 L240.0 336.7 L238.9 337.3 L238.0 336.8 L238.1 334.5 L233.4 336.1 L230.5 332.6 L227.7 332.3 L225.9 330.3 L225.8 327.0 Z"></path>
  <path class="province-shape" data-province="Đà Nẵng" data-source-id="48" d="M228.4 345.8 L233.2 343.1 L236.1 342.9 L239.6 336.7 L242.1 337.9 L242.3 336.5 L245.1 335.7 L245.1 337.0 L248.5 338.6 L251.3 335.6 L253.0 336.1 L255.5 331.6 L255.2 330.6 L256.7 329.3 L258.8 330.4 L260.1 329.3 L263.0 330.8 L268.5 329.5 L266.9 330.3 L265.6 333.2 L268.6 335.3 L269.6 334.3 L270.0 332.0 L273.0 333.2 L273.8 332.4 L274.4 333.4 L270.7 334.8 L272.2 339.5 L277.1 344.0 L277.9 347.3 L282.2 354.4 L285.9 359.1 L287.4 359.8 L288.2 359.1 L289.0 362.1 L290.7 363.9 L289.9 365.0 L286.7 365.2 L280.3 367.7 L278.2 366.9 L277.0 368.0 L273.4 368.1 L272.0 370.4 L273.1 371.2 L272.4 372.3 L273.0 373.3 L270.1 377.4 L270.4 379.3 L267.1 378.2 L266.5 378.8 L267.2 381.8 L264.3 382.7 L262.5 381.0 L260.1 380.7 L258.8 379.1 L258.5 378.5 L260.6 375.7 L260.5 374.1 L258.5 373.3 L257.6 371.8 L256.1 372.5 L249.8 371.0 L249.6 367.7 L248.0 367.3 L245.8 363.1 L244.4 362.9 L242.7 364.0 L240.9 363.1 L240.7 360.7 L239.3 360.5 L239.0 359.6 L235.4 359.9 L233.8 354.7 L231.1 353.9 L231.1 350.8 L229.9 349.2 L228.5 349.5 L229.2 347.6 Z M280.3 339.9 L281.1 339.3 L282.4 340.2 L282.6 341.7 Z M405.5 330.1 L406.0 328.9 L406.9 330.3 L410.9 328.7 L407.0 330.7 Z M401.3 292.1 L404.0 290.7 L405.8 291.6 L402.5 293.0 Z"></path>
  <path class="province-shape" data-province="Quảng Ngãi" data-source-id="51" d="M233.3 418.4 L236.4 413.0 L235.7 409.1 L237.5 406.8 L237.2 405.5 L238.1 404.9 L239.7 405.7 L241.5 399.5 L240.8 398.2 L242.0 397.1 L242.5 392.6 L241.1 392.4 L241.9 391.2 L240.4 389.7 L243.9 386.0 L239.5 382.8 L238.9 380.4 L241.8 378.6 L243.6 379.5 L244.0 378.5 L245.1 378.6 L244.2 377.0 L245.2 376.3 L244.6 375.1 L245.4 374.4 L243.6 372.3 L245.6 371.0 L244.9 368.5 L245.7 367.2 L244.1 364.5 L245.2 363.2 L246.5 363.9 L248.0 367.3 L249.6 367.7 L249.8 371.0 L256.1 372.5 L257.6 371.8 L258.5 373.3 L260.5 374.1 L260.6 375.7 L258.5 378.5 L258.8 379.1 L260.2 380.7 L262.5 381.0 L264.9 382.8 L267.2 381.8 L266.5 378.8 L267.1 378.2 L270.4 379.3 L270.1 377.4 L273.0 373.3 L272.4 372.3 L273.1 371.2 L272.0 370.4 L273.4 368.1 L277.0 368.0 L278.2 366.9 L280.3 367.7 L286.7 365.2 L289.9 365.0 L290.7 363.9 L292.1 364.5 L293.5 363.8 L293.1 362.8 L294.3 363.1 L294.4 364.9 L296.6 366.9 L295.9 368.2 L299.0 370.8 L297.1 372.6 L297.4 377.4 L301.2 387.9 L304.5 393.3 L304.0 395.4 L304.7 398.5 L302.0 394.8 L298.4 393.2 L296.8 394.1 L294.8 393.6 L293.5 394.7 L291.9 394.3 L291.4 397.9 L289.2 397.0 L285.6 400.4 L283.4 398.2 L280.8 400.0 L277.9 399.2 L276.8 397.4 L275.9 397.5 L275.1 398.8 L276.1 401.3 L274.8 402.1 L272.7 406.3 L269.6 406.4 L266.6 408.2 L265.2 407.5 L263.8 408.8 L264.2 409.6 L263.0 411.7 L262.2 411.2 L261.2 412.7 L259.0 413.3 L255.5 410.9 L254.0 411.6 L253.1 413.8 L251.8 413.3 L250.8 414.3 L247.8 413.5 L246.6 415.9 L246.3 420.0 L244.9 420.1 L243.7 421.9 L241.1 422.3 L241.2 423.5 L238.9 424.8 L238.5 426.0 L238.4 423.6 L237.8 422.9 L235.5 423.3 L234.3 421.7 L235.4 419.5 Z"></path>
  <path class="province-shape" data-province="Khánh Hòa" data-source-id="56" d="M283.0 523.1 L283.5 521.4 L288.0 520.5 L289.1 519.0 L287.7 517.0 L287.9 515.5 L285.8 514.6 L287.2 512.9 L287.5 508.1 L289.6 504.1 L288.0 501.4 L290.3 499.8 L289.1 496.3 L289.4 494.0 L288.3 493.3 L288.0 488.5 L289.6 486.4 L290.7 486.7 L292.3 485.4 L296.1 487.6 L296.4 486.5 L295.6 485.8 L296.9 482.3 L298.0 481.5 L297.1 480.4 L298.9 479.5 L299.5 477.8 L300.4 478.0 L302.9 475.4 L304.8 475.4 L306.0 473.2 L307.2 473.9 L308.1 472.0 L310.6 472.6 L311.7 471.5 L314.4 471.6 L316.2 470.2 L317.2 471.3 L315.9 472.2 L316.6 475.2 L318.7 478.6 L319.8 478.6 L320.2 479.4 L319.1 479.7 L319.0 483.0 L317.2 480.3 L318.1 479.5 L317.5 478.0 L316.3 478.4 L316.2 479.7 L314.7 478.8 L316.8 476.8 L315.4 473.1 L310.6 477.5 L309.1 480.1 L309.4 482.8 L311.3 482.1 L310.8 484.6 L313.4 486.5 L313.2 488.7 L315.3 489.8 L314.7 490.9 L313.9 490.3 L313.3 492.1 L308.5 487.5 L307.5 488.6 L308.0 489.6 L309.4 489.9 L309.6 492.5 L311.2 493.8 L309.6 494.8 L309.4 496.7 L310.2 498.0 L309.4 499.6 L310.5 500.6 L309.3 502.7 L310.6 505.9 L312.9 508.4 L311.9 509.7 L312.8 511.5 L311.5 512.7 L310.9 511.5 L309.6 511.5 L310.0 507.0 L308.7 501.9 L308.0 501.5 L308.3 504.5 L309.5 505.5 L309.8 507.3 L308.1 510.4 L306.6 510.3 L305.9 512.5 L307.2 514.0 L309.1 511.7 L309.0 515.3 L310.8 517.9 L309.2 517.9 L309.6 518.7 L306.6 524.7 L305.1 523.7 L302.5 524.1 L301.6 531.0 L302.1 533.1 L298.6 535.4 L295.9 534.3 L296.3 533.4 L291.4 531.0 L291.6 528.6 L288.2 528.4 L286.8 525.2 L284.3 525.0 Z M310.7 497.1 L311.9 497.4 L312.2 496.6 L313.8 497.6 L314.3 497.0 L315.0 498.4 L313.5 498.5 L313.6 497.9 L312.9 499.0 Z M313.7 480.6 L314.3 479.8 L316.9 480.4 L318.1 483.4 Z M326.7 691.8 L328.2 689.9 L330.3 689.3 L327.5 692.2 Z M404.5 691.1 L405.4 688.0 L408.5 688.3 L406.4 689.3 L405.2 691.3 Z M331.3 689.8 L332.2 688.6 L334.8 688.4 L336.8 690.4 Z M360.2 680.1 L361.6 678.2 L363.3 678.2 L361.9 680.0 Z M338.2 674.3 L340.5 673.5 L342.2 671.1 L344.7 674.0 L344.9 675.7 L340.1 680.0 L339.8 676.5 Z M366.0 670.2 L367.0 668.8 L368.2 669.9 L367.3 672.0 Z M360.2 668.8 L361.7 668.0 L363.0 668.8 L361.4 669.5 Z M359.7 666.1 L363.8 663.4 L366.2 663.8 L365.9 665.1 L363.6 664.8 L361.7 666.1 Z"></path>
  <path class="province-shape" data-province="Gia Lai" data-source-id="52" d="M238.2 431.4 L239.1 428.9 L238.3 428.2 L238.9 424.8 L241.2 423.6 L241.2 422.3 L243.7 421.9 L244.9 420.1 L246.3 420.0 L246.6 415.9 L247.8 413.5 L250.8 414.3 L251.8 413.3 L253.1 413.8 L254.0 411.6 L255.5 410.9 L259.0 413.3 L261.2 412.7 L262.2 411.2 L263.0 411.7 L264.2 409.6 L263.8 408.8 L265.2 407.5 L266.6 408.2 L269.6 406.4 L272.7 406.3 L274.8 402.1 L276.1 401.3 L275.1 398.8 L275.9 397.5 L276.8 397.4 L277.9 399.2 L280.8 400.0 L283.4 398.2 L285.6 400.4 L289.2 397.0 L291.4 397.9 L291.9 394.3 L293.5 394.7 L294.8 393.6 L296.8 394.1 L298.4 393.2 L302.0 394.8 L304.7 398.5 L304.1 399.1 L306.4 404.1 L306.3 407.1 L308.9 411.0 L309.4 413.0 L308.8 414.2 L310.6 417.0 L309.7 418.1 L311.7 422.1 L311.3 425.3 L313.5 428.0 L313.1 433.1 L311.2 432.4 L310.1 433.4 L310.9 436.6 L309.5 435.6 L307.7 436.3 L307.6 438.2 L306.2 437.9 L306.1 440.3 L303.5 440.9 L302.5 442.5 L295.9 442.3 L295.3 440.9 L293.8 440.6 L290.7 441.4 L289.2 444.4 L290.5 445.6 L293.0 445.0 L293.5 449.8 L296.1 452.9 L296.0 454.4 L294.9 457.9 L291.6 459.2 L291.4 463.4 L288.1 464.9 L284.7 463.5 L281.5 463.4 L281.7 461.7 L279.2 459.5 L279.5 457.9 L277.8 456.5 L277.2 453.9 L275.7 453.5 L274.7 450.6 L271.3 449.2 L269.2 449.3 L266.3 447.6 L262.7 447.5 L260.9 448.8 L259.9 448.3 L258.2 449.1 L254.0 448.0 L251.0 449.5 L248.4 449.1 L244.5 452.0 L245.5 449.7 L245.0 442.6 L241.5 433.5 Z"></path>
  <path class="province-shape" data-province="Đắk Lắk" data-source-id="66" d="M239.5 467.1 L240.4 465.8 L239.9 462.9 L244.5 452.0 L246.3 450.4 L248.3 449.1 L251.0 449.5 L254.0 448.0 L258.2 449.1 L265.1 447.3 L269.2 449.3 L271.3 449.2 L274.7 450.6 L275.7 453.5 L277.2 453.9 L277.8 456.5 L279.5 457.9 L279.2 459.5 L281.7 461.7 L281.5 463.4 L288.3 464.9 L291.4 463.4 L291.6 459.2 L294.9 457.9 L296.0 454.4 L296.1 452.9 L293.5 449.8 L293.0 445.0 L290.5 445.6 L289.2 444.4 L290.7 441.4 L293.8 440.6 L295.3 440.9 L295.9 442.3 L302.0 442.7 L303.5 440.9 L306.1 440.3 L306.3 437.7 L307.5 438.2 L307.7 436.3 L309.5 435.6 L310.9 436.6 L310.5 437.9 L311.5 439.7 L313.5 441.0 L312.6 441.9 L313.6 443.0 L313.3 444.6 L314.8 445.1 L313.4 447.8 L311.9 446.9 L313.2 445.6 L311.1 444.1 L310.4 446.1 L311.0 446.8 L310.1 448.2 L311.3 448.5 L311.9 449.8 L313.3 449.5 L312.9 451.5 L314.3 454.1 L313.3 455.7 L313.4 458.9 L319.9 468.4 L320.0 469.7 L318.7 471.2 L319.1 469.7 L317.2 471.3 L316.2 470.2 L314.4 471.6 L311.7 471.5 L310.6 472.6 L308.1 472.0 L307.2 473.9 L306.0 473.2 L304.8 475.4 L302.9 475.4 L297.1 480.4 L298.0 481.5 L296.9 482.3 L295.6 485.8 L296.4 486.5 L296.1 487.6 L292.3 485.4 L290.7 486.7 L289.1 486.7 L287.8 488.9 L288.7 491.0 L287.7 494.0 L284.8 495.0 L282.7 494.1 L281.4 495.0 L280.3 493.6 L278.6 494.9 L278.5 496.1 L274.3 496.2 L274.4 497.0 L272.7 498.1 L271.9 497.6 L270.4 499.8 L269.9 498.9 L268.3 499.3 L267.3 498.3 L265.4 499.2 L262.2 494.5 L259.5 494.1 L257.9 492.2 L257.2 489.1 L259.9 487.9 L260.6 486.6 L258.8 484.9 L256.0 484.0 L257.9 481.6 L256.7 479.4 L257.0 477.6 L256.3 476.8 L257.0 475.8 L254.9 474.9 L254.7 472.8 L251.6 474.0 L245.6 472.9 L242.6 473.3 L240.1 469.9 Z"></path>
  <path class="province-shape" data-province="Lâm Đồng" data-source-id="68" d="M228.2 494.2 L233.9 492.6 L236.0 495.8 L237.5 496.3 L237.9 494.3 L242.0 491.9 L242.4 490.7 L241.9 489.4 L243.5 485.8 L242.7 484.7 L243.8 483.2 L242.6 473.3 L245.6 472.9 L251.6 474.0 L254.4 472.6 L254.9 474.9 L256.9 475.6 L256.7 479.4 L257.9 481.6 L256.0 484.0 L258.8 484.9 L260.6 486.6 L259.9 487.9 L257.2 489.1 L257.9 492.2 L259.5 494.1 L262.2 494.5 L265.4 499.2 L267.3 498.3 L268.3 499.3 L269.9 498.9 L270.4 499.8 L271.9 497.6 L272.7 498.1 L274.4 497.0 L274.3 496.2 L278.5 496.1 L278.6 494.9 L280.3 493.6 L281.4 495.0 L282.7 494.1 L284.8 495.0 L288.4 493.3 L289.2 493.7 L289.1 496.3 L290.3 499.8 L288.0 501.5 L289.6 504.1 L287.5 508.1 L287.2 512.9 L285.8 514.6 L287.9 515.5 L287.7 517.0 L289.1 519.0 L288.0 520.5 L283.5 521.4 L283.0 523.1 L284.3 525.0 L286.8 525.2 L288.2 528.4 L291.6 528.6 L291.4 531.0 L295.0 532.4 L296.2 534.1 L293.8 534.8 L293.6 535.6 L292.6 535.1 L291.4 536.4 L289.4 541.2 L287.1 540.1 L281.8 541.8 L279.9 546.1 L275.4 547.1 L274.4 550.0 L273.2 549.9 L272.6 551.7 L271.8 550.5 L269.9 550.0 L263.9 551.8 L260.3 560.6 L256.4 559.6 L253.7 560.3 L251.5 562.7 L243.0 566.0 L242.0 560.3 L240.3 558.0 L243.2 555.8 L242.6 550.7 L240.4 547.5 L239.1 547.8 L235.9 546.0 L237.9 544.6 L238.3 543.5 L237.5 542.4 L240.1 538.0 L241.2 537.7 L240.9 535.2 L242.0 532.9 L241.6 533.4 L240.2 532.2 L239.2 530.0 L237.3 530.4 L239.0 528.2 L237.8 526.6 L234.8 526.6 L235.2 525.6 L234.5 523.9 L233.9 525.5 L232.5 525.1 L232.2 522.4 L230.7 521.4 L231.5 517.9 L235.8 516.2 L237.2 512.9 L233.0 506.3 L230.7 505.9 L229.7 504.9 L229.2 505.3 L229.6 501.8 L228.9 501.3 Z M298.2 566.9 L299.6 566.8 L300.0 568.5 L298.6 568.4 Z"></path>
  <path class="province-shape" data-province="Tây Ninh" data-source-id="80" d="M158.6 550.1 L170.0 546.8 L173.5 552.2 L172.9 553.8 L176.4 554.8 L176.2 553.7 L177.2 552.9 L176.8 551.5 L181.9 555.9 L185.7 555.9 L186.8 556.8 L186.7 554.8 L184.6 551.6 L185.0 549.0 L187.4 549.1 L186.7 546.0 L185.3 543.9 L183.2 545.1 L179.9 542.2 L179.6 540.2 L176.1 539.1 L175.3 536.3 L173.5 536.3 L174.3 533.2 L173.8 531.3 L175.1 529.5 L173.9 528.9 L174.2 525.4 L171.6 524.5 L171.2 523.1 L174.3 520.0 L177.1 521.5 L179.7 517.9 L179.7 516.1 L181.5 515.6 L183.6 517.2 L186.6 516.9 L189.5 517.9 L191.3 519.9 L195.3 519.3 L197.4 520.2 L199.0 524.4 L198.6 525.4 L196.5 525.9 L196.0 528.3 L194.2 529.3 L192.3 533.8 L193.9 537.3 L193.3 537.8 L194.7 538.6 L194.8 540.4 L196.6 540.9 L197.3 542.7 L195.9 547.7 L193.6 548.5 L200.7 552.2 L199.6 556.9 L197.9 558.2 L200.6 559.8 L201.8 562.7 L203.7 562.3 L204.9 563.7 L207.0 562.4 L208.5 562.8 L209.3 568.9 L206.8 571.4 L205.4 569.5 L204.6 570.8 L202.9 571.5 L203.0 572.3 L200.6 571.6 L197.6 573.2 L195.9 571.8 L197.5 570.9 L197.0 570.2 L195.5 569.1 L194.5 569.7 L193.2 567.0 L190.7 565.2 L183.2 565.7 L183.2 567.9 L175.3 567.3 L172.3 563.1 L170.1 562.3 L162.5 555.1 L163.2 555.1 L162.0 552.6 L159.2 551.3 Z"></path>
  <path class="province-shape" data-province="Đồng Nai" data-source-id="75" d="M195.8 507.6 L197.6 507.0 L199.1 507.8 L200.2 507.3 L204.9 508.1 L205.9 508.0 L205.7 507.0 L206.9 508.0 L208.4 507.8 L211.3 503.1 L216.5 503.9 L219.8 502.6 L219.9 501.7 L223.0 499.7 L222.9 498.6 L223.6 499.0 L225.4 496.9 L226.0 495.0 L228.2 494.2 L228.9 501.3 L229.6 501.8 L229.2 505.3 L229.7 504.9 L230.7 505.9 L233.0 506.3 L237.2 512.9 L235.8 516.2 L231.5 517.9 L230.7 521.4 L232.2 522.4 L232.5 525.1 L233.9 525.5 L234.5 523.9 L235.2 525.6 L234.8 526.6 L237.8 526.6 L239.0 528.2 L237.3 530.4 L239.2 530.0 L240.2 532.2 L241.6 533.4 L242.0 532.9 L240.9 535.2 L241.2 537.7 L240.1 538.0 L237.5 542.4 L238.3 543.5 L237.9 544.6 L235.9 546.0 L239.1 547.8 L240.4 547.5 L241.9 549.0 L243.3 555.0 L242.7 556.4 L240.0 557.8 L237.9 556.2 L234.5 559.4 L234.2 561.5 L232.8 561.9 L232.0 561.2 L232.0 558.3 L227.5 557.6 L225.4 558.7 L225.2 561.2 L223.7 562.6 L221.6 562.3 L219.8 563.3 L220.1 564.3 L219.1 565.6 L216.2 564.4 L215.0 562.7 L212.6 563.5 L210.5 561.5 L209.7 560.2 L210.4 558.7 L212.4 557.2 L212.6 558.1 L214.5 557.8 L215.0 556.0 L213.2 552.1 L211.2 551.3 L210.1 549.6 L211.5 549.3 L210.6 547.9 L212.1 546.8 L211.7 545.6 L212.8 545.4 L214.6 547.3 L216.0 547.2 L216.6 545.8 L217.7 545.7 L218.4 542.0 L215.8 539.4 L216.1 538.1 L217.0 537.9 L217.8 534.1 L216.3 533.3 L214.6 534.5 L214.7 535.3 L214.0 535.0 L214.0 532.5 L211.4 532.3 L210.4 531.3 L211.9 529.3 L211.5 527.7 L209.8 528.3 L209.8 529.4 L207.9 531.5 L206.5 531.4 L206.4 533.4 L204.2 533.0 L204.0 532.0 L201.9 532.7 L201.0 532.0 L201.1 530.4 L202.4 529.1 L201.7 528.0 L201.0 528.7 L199.0 527.3 L196.3 527.5 L196.5 525.9 L198.6 525.4 L199.0 524.0 L195.9 516.2 L197.3 513.8 L197.0 512.4 L198.1 512.0 Z"></path>
  <path class="province-shape" data-province="Hồ Chí Minh City" data-source-id="79" d="M201.8 644.1 L203.2 642.2 L206.3 641.0 L205.2 642.3 L205.9 643.6 L204.8 643.3 L203.4 644.5 L204.1 645.7 L202.5 645.5 Z M192.3 533.9 L194.2 529.3 L196.7 527.3 L199.0 527.3 L201.0 528.7 L201.7 528.0 L202.4 529.1 L201.1 530.4 L201.0 532.0 L201.9 532.7 L204.0 532.0 L204.2 533.0 L206.4 533.4 L206.5 531.4 L207.9 531.5 L209.8 529.4 L209.8 528.3 L211.5 527.7 L211.9 529.3 L210.4 531.3 L211.4 532.3 L214.0 532.5 L214.0 535.0 L214.7 535.3 L214.6 534.5 L216.0 533.4 L217.6 533.4 L217.0 537.9 L216.1 538.1 L215.8 539.4 L218.4 541.9 L218.4 543.6 L216.0 547.2 L214.5 547.3 L212.7 545.4 L211.6 545.8 L212.1 546.8 L210.6 547.9 L211.5 549.3 L210.1 550.0 L213.2 552.1 L215.0 556.1 L214.5 557.8 L212.6 558.1 L212.4 557.2 L210.4 558.7 L209.9 560.9 L212.6 563.5 L215.0 562.7 L216.2 564.4 L219.1 565.6 L220.1 564.3 L219.8 563.3 L221.6 562.3 L223.7 562.6 L225.2 561.2 L225.4 558.7 L227.4 557.6 L232.0 558.3 L232.0 561.2 L232.8 561.9 L234.2 561.5 L234.5 559.4 L238.1 556.2 L240.4 557.6 L242.0 560.3 L243.0 566.0 L240.7 568.8 L238.9 569.0 L237.8 570.2 L233.3 570.8 L230.2 573.8 L228.6 572.8 L226.6 572.9 L223.2 576.3 L222.1 573.8 L224.0 573.3 L224.4 571.5 L222.2 571.2 L219.9 568.9 L218.8 568.9 L218.4 570.4 L217.0 570.2 L218.6 572.7 L215.6 573.9 L214.7 573.9 L214.6 572.7 L212.0 573.2 L209.3 569.4 L209.4 565.7 L208.4 564.9 L208.5 562.8 L207.0 562.4 L204.9 563.7 L203.7 562.3 L201.8 562.7 L200.6 559.8 L197.9 558.2 L199.6 556.9 L200.7 552.2 L193.6 548.5 L195.9 547.7 L197.3 542.7 L196.6 540.9 L194.8 540.4 L194.7 538.6 L193.3 537.8 L193.9 537.3 Z"></path>
  <path class="province-shape" data-province="Vĩnh Long" data-source-id="86" d="M166.0 584.0 L167.9 581.1 L170.9 583.1 L173.7 583.2 L174.0 581.7 L175.5 581.6 L175.7 580.8 L174.0 578.6 L178.3 575.9 L182.6 578.1 L194.2 575.5 L209.7 581.6 L211.2 583.3 L211.3 584.9 L209.1 587.7 L207.0 588.3 L206.5 589.7 L204.6 590.6 L204.6 591.7 L206.9 594.5 L205.2 597.3 L203.9 598.1 L201.9 595.5 L199.4 596.8 L200.3 597.6 L200.3 599.3 L202.1 600.3 L202.6 602.4 L201.4 605.9 L198.4 608.4 L194.2 609.1 L194.1 608.0 L189.0 605.4 L177.4 593.6 L173.1 590.7 L170.2 586.8 Z"></path>
  <path class="province-shape" data-province="Đồng Tháp" data-source-id="82" d="M145.9 551.8 L152.0 553.9 L155.6 549.2 L158.6 550.1 L159.2 551.3 L162.0 552.6 L163.2 555.1 L162.5 555.1 L170.1 562.3 L172.3 563.1 L175.3 567.3 L183.2 567.9 L183.2 565.7 L190.7 565.2 L193.2 567.0 L194.5 569.7 L195.5 569.1 L197.0 570.2 L197.5 570.9 L195.9 571.8 L197.6 573.2 L200.6 571.6 L203.0 572.3 L202.9 571.5 L204.6 570.8 L205.4 569.5 L206.8 571.4 L209.3 568.9 L212.0 573.2 L210.9 573.2 L210.9 577.5 L209.7 578.5 L210.9 580.4 L209.7 581.6 L194.6 575.5 L182.6 578.1 L178.4 575.8 L174.0 578.6 L175.7 580.8 L175.5 581.6 L174.0 581.7 L173.7 583.2 L170.9 583.1 L167.9 581.1 L166.0 584.0 L162.4 579.4 L158.2 575.8 L160.6 571.8 L161.6 571.8 L160.7 568.0 L159.2 566.9 L157.9 567.4 L153.4 565.8 L152.1 562.5 L152.6 560.0 L149.6 559.6 L150.6 558.1 L149.1 557.7 L148.8 556.4 L147.6 556.0 L145.9 553.3 Z"></path>
  <path class="province-shape" data-province="An Giang" data-source-id="91" d="M75.4 618.3 L77.6 618.1 L76.4 619.1 Z M90.7 574.4 L94.6 574.6 L97.1 570.9 L100.6 574.1 L100.8 579.3 L98.2 586.1 L99.3 586.7 L98.7 588.3 L99.6 589.4 L97.8 589.1 L95.4 579.8 L94.0 577.7 L91.7 577.0 Z M115.4 572.0 L117.0 571.7 L117.8 572.8 L121.9 567.4 L132.9 568.0 L136.4 563.2 L142.3 559.7 L139.4 552.6 L141.6 549.9 L142.9 549.7 L142.3 551.4 L145.9 551.8 L145.9 553.3 L147.6 556.0 L148.8 556.4 L149.1 557.7 L150.6 558.1 L149.6 559.6 L152.6 560.0 L152.1 562.5 L153.4 565.9 L160.6 567.8 L161.6 571.8 L160.9 571.6 L159.6 573.0 L158.5 576.1 L155.6 577.0 L156.2 578.4 L152.0 579.9 L150.5 578.1 L147.5 581.3 L151.2 583.7 L153.1 586.5 L160.2 593.2 L159.5 595.4 L155.8 597.2 L155.0 600.0 L151.6 602.0 L152.1 603.0 L154.8 604.0 L153.4 606.6 L152.2 605.6 L150.8 605.8 L150.3 604.6 L149.9 605.0 L151.7 609.1 L150.4 610.0 L150.1 611.6 L151.3 615.1 L148.9 614.4 L138.4 607.8 L138.0 608.6 L136.7 607.9 L136.0 608.9 L134.8 607.7 L133.4 610.5 L131.6 609.0 L132.1 602.9 L134.0 595.9 L136.5 595.6 L140.1 592.0 L141.5 591.7 L142.2 592.6 L142.6 591.6 L141.5 589.3 L137.9 585.5 L133.6 585.9 L128.6 580.4 L125.7 581.1 L123.8 583.9 L122.0 583.6 L121.1 578.8 L119.9 577.5 L119.1 578.1 L119.0 576.3 L117.1 573.9 L115.5 574.5 Z M122.2 598.0 L123.3 596.9 L124.3 597.1 L124.0 598.0 Z"></path>
  <path class="province-shape" data-province="Cần Thơ" data-source-id="92" d="M147.5 581.3 L150.5 578.1 L152.0 579.9 L156.3 578.4 L155.6 577.0 L158.1 576.2 L161.3 578.2 L165.1 583.4 L170.2 586.8 L173.1 590.7 L177.4 593.6 L181.9 598.8 L191.2 606.6 L189.9 610.0 L187.4 610.3 L187.5 612.0 L185.7 613.8 L186.6 613.7 L186.4 615.6 L184.4 617.2 L172.0 620.8 L171.4 616.9 L173.3 616.1 L172.6 614.2 L171.5 615.6 L169.3 613.8 L167.0 614.5 L166.9 615.3 L164.8 614.9 L163.9 613.6 L161.9 613.9 L160.5 612.3 L160.9 607.5 L160.1 606.3 L153.7 606.7 L154.8 604.0 L152.1 603.0 L151.6 602.0 L155.0 600.0 L155.8 597.2 L159.5 595.4 L160.2 593.2 L153.1 586.5 L151.2 583.7 Z"></path>
  <path class="province-shape" data-province="Cà Mau" data-source-id="96" d="M126.5 646.0 L127.1 645.1 L129.9 645.1 L129.8 642.5 L132.7 641.2 L134.2 639.2 L130.6 640.3 L129.3 638.5 L130.2 634.0 L131.6 609.0 L133.4 610.5 L134.8 607.7 L136.0 608.9 L136.7 607.9 L138.0 608.6 L138.4 607.8 L148.9 614.4 L151.3 615.1 L150.1 611.6 L150.4 610.0 L151.7 609.1 L149.9 606.1 L150.3 604.6 L150.8 605.8 L152.2 605.6 L152.3 606.4 L153.7 606.7 L155.2 606.0 L158.2 606.9 L160.1 606.2 L160.9 607.5 L160.5 612.3 L161.9 613.9 L163.9 613.6 L164.8 614.9 L166.9 615.3 L167.0 614.5 L169.3 613.8 L171.5 615.6 L171.7 614.6 L172.8 614.4 L173.3 616.1 L171.4 616.9 L172.0 620.8 L158.0 627.3 L154.3 631.1 L151.6 637.6 L149.0 640.3 L145.5 641.6 L142.5 645.8 L131.4 648.9 L126.7 647.2 Z"></path>
  <g class="province-shape" data-province="Quần đảo Hoàng Sa" data-source-id="HS">
    <circle cx="329" cy="286" r="2.4"></circle><circle cx="336" cy="291" r="1.7"></circle><circle cx="342" cy="285" r="1.5"></circle><circle cx="333" cy="297" r="1.4"></circle><circle cx="340" cy="295" r="1.2"></circle>
  </g>
  <text x="335" y="311" text-anchor="middle" font-size="9.5" font-weight="700" fill="var(--map-label,#A79C97)">Quần đảo Hoàng Sa</text>
  <text x="335" y="321" text-anchor="middle" font-size="7.5" font-weight="500" fill="var(--map-label,#A79C97)">(Paracel Islands · TP. Đà Nẵng)</text>
  <g class="province-shape" data-province="Quần đảo Trường Sa" data-source-id="TS">
    <circle cx="320" cy="598" r="2.2"></circle><circle cx="329" cy="604" r="1.6"></circle><circle cx="338" cy="596" r="1.5"></circle><circle cx="333" cy="613" r="1.4"></circle><circle cx="343" cy="606" r="1.3"></circle><circle cx="325" cy="616" r="1.1"></circle>
  </g>
  <text x="332" y="631" text-anchor="middle" font-size="9.5" font-weight="700" fill="var(--map-label,#A79C97)">Quần đảo Trường Sa</text>
  <text x="332" y="641" text-anchor="middle" font-size="7.5" font-weight="500" fill="var(--map-label,#A79C97)">(Spratly Islands · Khánh Hòa)</text>
</svg>